<svg width="208" height="308" viewBox="0 0 208 308" fill="none" xmlns="http://www.w3.org/2000/svg">
<g filter="url(#filter0_d_50_80)">
<rect x="4" width="200" height="300" rx="10" fill="white"/>
<rect x="16.1667" y="10.5" width="175.667" height="279" rx="7.5" fill="white" stroke="#FF3942"/>
<rect x="10.6667" y="10" width="28.3333" height="21.4" fill="white"/>
<path d="M23.8667 21.1032C22.7467 21.2632 21.6747 21.3432 20.6507 21.3432C19.6267 21.3432 18.7867 21.0152 18.1307 20.3592C17.4747 19.7032 17.1467 18.8312 17.1467 17.7432V17.5032H16.4267C14.7467 17.5032 13.5227 17.1272 12.7547 16.3752C12.0027 15.6072 11.6267 14.3832 11.6267 12.7032V5.02318C11.6267 3.34318 12.0027 2.12718 12.7547 1.37518C13.5227 0.607183 14.7467 0.223183 16.4267 0.223183H22.4267C24.1067 0.223183 25.3227 0.607183 26.0747 1.37518C26.8427 2.12718 27.2267 3.34318 27.2267 5.02318V12.7032C27.2267 14.3832 26.8427 15.6072 26.0747 16.3752C25.3227 17.1272 24.1067 17.5032 22.4267 17.5032H21.2267V17.7432C21.2267 17.9832 21.3067 18.1832 21.4667 18.3432C21.6267 18.5032 21.8267 18.5832 22.0667 18.5832H23.8667V21.1032ZM22.9067 5.02318C22.9067 4.06318 22.4267 3.58318 21.4667 3.58318H17.3867C16.4267 3.58318 15.9467 4.06318 15.9467 5.02318V12.7032C15.9467 13.6632 16.4267 14.1432 17.3867 14.1432H21.4667C22.4267 14.1432 22.9067 13.6632 22.9067 12.7032V5.02318Z" fill="#FF3942"/>
<rect x="197.333" y="290" width="28.3333" height="21.4" transform="rotate(-180 197.333 290)" fill="white"/>
<path d="M184.133 278.897C185.253 278.737 186.325 278.657 187.349 278.657C188.373 278.657 189.213 278.985 189.869 279.641C190.525 280.297 190.853 281.169 190.853 282.257V282.497H191.573C193.253 282.497 194.477 282.873 195.245 283.625C195.997 284.393 196.373 285.617 196.373 287.297V294.977C196.373 296.657 195.997 297.873 195.245 298.625C194.477 299.393 193.253 299.777 191.573 299.777H185.573C183.893 299.777 182.677 299.393 181.925 298.625C181.157 297.873 180.773 296.657 180.773 294.977V287.297C180.773 285.617 181.157 284.393 181.925 283.625C182.677 282.873 183.893 282.497 185.573 282.497H186.773V282.257C186.773 282.017 186.693 281.817 186.533 281.657C186.373 281.497 186.173 281.417 185.933 281.417H184.133V278.897ZM185.093 294.977C185.093 295.937 185.573 296.417 186.533 296.417H190.613C191.573 296.417 192.053 295.937 192.053 294.977V287.297C192.053 286.337 191.573 285.857 190.613 285.857H186.533C185.573 285.857 185.093 286.337 185.093 287.297V294.977Z" fill="#FF3942"/>
</g>
<defs>
<filter id="filter0_d_50_80" x="0" y="0" width="208" height="308" filterUnits="userSpaceOnUse" color-interpolation-filters="sRGB">
<feFlood flood-opacity="0" result="BackgroundImageFix"/>
<feColorMatrix in="SourceAlpha" type="matrix" values="0 0 0 0 0 0 0 0 0 0 0 0 0 0 0 0 0 0 127 0" result="hardAlpha"/>
<feOffset dy="4"/>
<feGaussianBlur stdDeviation="2"/>
<feComposite in2="hardAlpha" operator="out"/>
<feColorMatrix type="matrix" values="0 0 0 0 0 0 0 0 0 0 0 0 0 0 0 0 0 0 0.25 0"/>
<feBlend mode="normal" in2="BackgroundImageFix" result="effect1_dropShadow_50_80"/>
<feBlend mode="normal" in="SourceGraphic" in2="effect1_dropShadow_50_80" result="shape"/>
</filter>
</defs>
</svg>
